solid OpenSCAD_Model
  facet normal 0 0 -1
    outer loop
      vertex 128 125 13.45
      vertex 138 127 13.45
      vertex 138 119 13.45
    endloop
  endfacet
  facet normal -0 0 -1
    outer loop
      vertex 128 121 13.45
      vertex 118 119 13.45
      vertex 118 127 13.45
    endloop
  endfacet
  facet normal 0 0 -1
    outer loop
      vertex 138 119 13.45
      vertex 128 121 13.45
      vertex 128 125 13.45
    endloop
  endfacet
  facet normal 0 0 -1
    outer loop
      vertex 128 121 13.45
      vertex 118 127 13.45
      vertex 128 125 13.45
    endloop
  endfacet
  facet normal 0 -0 1
    outer loop
      vertex 138 119 34.25
      vertex 138 127 34.25
      vertex 128 125 34.25
    endloop
  endfacet
  facet normal 0 0 1
    outer loop
      vertex 118 127 34.25
      vertex 118 119 34.25
      vertex 128 121 34.25
    endloop
  endfacet
  facet normal 0 0 1
    outer loop
      vertex 128 125 34.25
      vertex 128 121 34.25
      vertex 138 119 34.25
    endloop
  endfacet
  facet normal 0 0 1
    outer loop
      vertex 128 125 34.25
      vertex 118 127 34.25
      vertex 128 121 34.25
    endloop
  endfacet
  facet normal -0.196116 0.980581 0
    outer loop
      vertex 128 125 13.45
      vertex 138 127 34.25
      vertex 138 127 13.45
    endloop
  endfacet
  facet normal -0.196116 0.980581 0
    outer loop
      vertex 128 125 13.45
      vertex 128 125 34.25
      vertex 138 127 34.25
    endloop
  endfacet
  facet normal 0.196116 0.980581 0
    outer loop
      vertex 118 127 13.45
      vertex 128 125 34.25
      vertex 128 125 13.45
    endloop
  endfacet
  facet normal 0.196116 0.980581 -0
    outer loop
      vertex 118 127 13.45
      vertex 118 127 34.25
      vertex 128 125 34.25
    endloop
  endfacet
  facet normal -1 0 0
    outer loop
      vertex 118 119 13.45
      vertex 118 127 34.25
      vertex 118 127 13.45
    endloop
  endfacet
  facet normal -1 0 0
    outer loop
      vertex 118 119 13.45
      vertex 118 119 34.25
      vertex 118 127 34.25
    endloop
  endfacet
  facet normal 0.196116 -0.980581 0
    outer loop
      vertex 128 121 13.45
      vertex 118 119 34.25
      vertex 118 119 13.45
    endloop
  endfacet
  facet normal 0.196116 -0.980581 0
    outer loop
      vertex 128 121 13.45
      vertex 128 121 34.25
      vertex 118 119 34.25
    endloop
  endfacet
  facet normal -0.196116 -0.980581 0
    outer loop
      vertex 138 119 13.45
      vertex 128 121 34.25
      vertex 128 121 13.45
    endloop
  endfacet
  facet normal -0.196116 -0.980581 0
    outer loop
      vertex 138 119 13.45
      vertex 138 119 34.25
      vertex 128 121 34.25
    endloop
  endfacet
  facet normal 1 0 0
    outer loop
      vertex 138 127 13.45
      vertex 138 119 34.25
      vertex 138 119 13.45
    endloop
  endfacet
  facet normal 1 0 -0
    outer loop
      vertex 138 127 13.45
      vertex 138 127 34.25
      vertex 138 119 34.25
    endloop
  endfacet
endsolid OpenSCAD_Model
