solid OpenSCAD_Model
  facet normal 1 0 0
    outer loop
      vertex 56 121.5 15.4
      vertex 56 125.5 18.4828
      vertex 56 125.5 20.4
    endloop
  endfacet
  facet normal 1 0 0
    outer loop
      vertex 56 125.5 18.4828
      vertex 56 121.5 15.4
      vertex 56 122.417 15.4
    endloop
  endfacet
  facet normal 1 0 0
    outer loop
      vertex 56 121.5 15.4
      vertex 56 6.5 15.4
      vertex 56 121.5 13.5
    endloop
  endfacet
  facet normal 1 0 0
    outer loop
      vertex 56 125.5 20.4
      vertex 56 6.5 15.4
      vertex 56 121.5 15.4
    endloop
  endfacet
  facet normal 1 -0 0
    outer loop
      vertex 56 2.5 20.4
      vertex 56 6.5 15.4
      vertex 56 125.5 20.4
    endloop
  endfacet
  facet normal 1 -0 0
    outer loop
      vertex 56 2.5 18.4828
      vertex 56 6.5 15.4
      vertex 56 2.5 20.4
    endloop
  endfacet
  facet normal 1 0 0
    outer loop
      vertex 56 6.5 15.4
      vertex 56 2.5 18.4828
      vertex 56 5.58283 15.4
    endloop
  endfacet
  facet normal 1 0 0
    outer loop
      vertex 56 121.5 13.5
      vertex 56 6.5 15.4
      vertex 56 6.5 13.5
    endloop
  endfacet
  facet normal 0 0 1
    outer loop
      vertex 56 125.5 20.4
      vertex 49.7 116.5 20.4
      vertex 56 2.5 20.4
    endloop
  endfacet
  facet normal 0 0 1
    outer loop
      vertex 56 125.5 20.4
      vertex 49.6791 116.766 20.4
      vertex 49.7 116.5 20.4
    endloop
  endfacet
  facet normal 0 0 1
    outer loop
      vertex 56 125.5 20.4
      vertex 49.6168 117.025 20.4
      vertex 49.6791 116.766 20.4
    endloop
  endfacet
  facet normal 0 0 1
    outer loop
      vertex 56 125.5 20.4
      vertex 49.5147 117.272 20.4
      vertex 49.6168 117.025 20.4
    endloop
  endfacet
  facet normal 0 0 1
    outer loop
      vertex 56 125.5 20.4
      vertex 49.3753 117.499 20.4
      vertex 49.5147 117.272 20.4
    endloop
  endfacet
  facet normal 0 0 1
    outer loop
      vertex 56 125.5 20.4
      vertex 49.2021 117.702 20.4
      vertex 49.3753 117.499 20.4
    endloop
  endfacet
  facet normal 0 0 1
    outer loop
      vertex 56 125.5 20.4
      vertex 48.9992 117.875 20.4
      vertex 49.2021 117.702 20.4
    endloop
  endfacet
  facet normal 0 0 1
    outer loop
      vertex 56 125.5 20.4
      vertex 48.7718 118.015 20.4
      vertex 48.9992 117.875 20.4
    endloop
  endfacet
  facet normal 0 0 1
    outer loop
      vertex 56 125.5 20.4
      vertex 48.5253 118.117 20.4
      vertex 48.7718 118.015 20.4
    endloop
  endfacet
  facet normal 0 0 1
    outer loop
      vertex 56 125.5 20.4
      vertex 48.2659 118.179 20.4
      vertex 48.5253 118.117 20.4
    endloop
  endfacet
  facet normal 0 0 1
    outer loop
      vertex 56 125.5 20.4
      vertex 48 118.2 20.4
      vertex 48.2659 118.179 20.4
    endloop
  endfacet
  facet normal -0 0 1
    outer loop
      vertex 40 125.5 20.4
      vertex 48 118.2 20.4
      vertex 56 125.5 20.4
    endloop
  endfacet
  facet normal 0 0 1
    outer loop
      vertex 48 118.2 20.4
      vertex 40 125.5 20.4
      vertex 47.7341 118.179 20.4
    endloop
  endfacet
  facet normal 0 0 1
    outer loop
      vertex 47.7341 118.179 20.4
      vertex 40 125.5 20.4
      vertex 47.4747 118.117 20.4
    endloop
  endfacet
  facet normal 0 0 1
    outer loop
      vertex 47.4747 118.117 20.4
      vertex 40 125.5 20.4
      vertex 47.2282 118.015 20.4
    endloop
  endfacet
  facet normal 0 0 1
    outer loop
      vertex 46.3 116.5 20.4
      vertex 40 125.5 20.4
      vertex 46.3 11.5 20.4
    endloop
  endfacet
  facet normal 0 0 1
    outer loop
      vertex 46.3209 116.766 20.4
      vertex 40 125.5 20.4
      vertex 46.3 116.5 20.4
    endloop
  endfacet
  facet normal 0 0 1
    outer loop
      vertex 46.3832 117.025 20.4
      vertex 40 125.5 20.4
      vertex 46.3209 116.766 20.4
    endloop
  endfacet
  facet normal 0 0 1
    outer loop
      vertex 46.4853 117.272 20.4
      vertex 40 125.5 20.4
      vertex 46.3832 117.025 20.4
    endloop
  endfacet
  facet normal 0 0 1
    outer loop
      vertex 46.6247 117.499 20.4
      vertex 40 125.5 20.4
      vertex 46.4853 117.272 20.4
    endloop
  endfacet
  facet normal 0 0 1
    outer loop
      vertex 46.7979 117.702 20.4
      vertex 40 125.5 20.4
      vertex 46.6247 117.499 20.4
    endloop
  endfacet
  facet normal 0 0 1
    outer loop
      vertex 47.0008 117.875 20.4
      vertex 40 125.5 20.4
      vertex 46.7979 117.702 20.4
    endloop
  endfacet
  facet normal 0 0 1
    outer loop
      vertex 47.2282 118.015 20.4
      vertex 40 125.5 20.4
      vertex 47.0008 117.875 20.4
    endloop
  endfacet
  facet normal -0 0 1
    outer loop
      vertex 49.7 11.5 20.4
      vertex 56 2.5 20.4
      vertex 49.7 116.5 20.4
    endloop
  endfacet
  facet normal -0 0 1
    outer loop
      vertex 49.6791 11.2341 20.4
      vertex 56 2.5 20.4
      vertex 49.7 11.5 20.4
    endloop
  endfacet
  facet normal -0 0 1
    outer loop
      vertex 49.6168 10.9747 20.4
      vertex 56 2.5 20.4
      vertex 49.6791 11.2341 20.4
    endloop
  endfacet
  facet normal -0 0 1
    outer loop
      vertex 49.5147 10.7282 20.4
      vertex 56 2.5 20.4
      vertex 49.6168 10.9747 20.4
    endloop
  endfacet
  facet normal -0 0 1
    outer loop
      vertex 49.3753 10.5008 20.4
      vertex 56 2.5 20.4
      vertex 49.5147 10.7282 20.4
    endloop
  endfacet
  facet normal -0 0 1
    outer loop
      vertex 49.2021 10.2979 20.4
      vertex 56 2.5 20.4
      vertex 49.3753 10.5008 20.4
    endloop
  endfacet
  facet normal -0 0 1
    outer loop
      vertex 48.9992 10.1247 20.4
      vertex 56 2.5 20.4
      vertex 49.2021 10.2979 20.4
    endloop
  endfacet
  facet normal -0 0 1
    outer loop
      vertex 48.7718 9.98529 20.4
      vertex 56 2.5 20.4
      vertex 48.9992 10.1247 20.4
    endloop
  endfacet
  facet normal -0 0 1
    outer loop
      vertex 48.5253 9.8832 20.4
      vertex 56 2.5 20.4
      vertex 48.7718 9.98529 20.4
    endloop
  endfacet
  facet normal -0 0 1
    outer loop
      vertex 48.2659 9.82093 20.4
      vertex 56 2.5 20.4
      vertex 48.5253 9.8832 20.4
    endloop
  endfacet
  facet normal -0 0 1
    outer loop
      vertex 48 9.8 20.4
      vertex 56 2.5 20.4
      vertex 48.2659 9.82093 20.4
    endloop
  endfacet
  facet normal 0 0 1
    outer loop
      vertex 40 2.5 20.4
      vertex 48 9.8 20.4
      vertex 47.7341 9.82093 20.4
    endloop
  endfacet
  facet normal 0 0 1
    outer loop
      vertex 40 2.5 20.4
      vertex 47.7341 9.82093 20.4
      vertex 47.4747 9.8832 20.4
    endloop
  endfacet
  facet normal 0 0 1
    outer loop
      vertex 40 2.5 20.4
      vertex 47.4747 9.8832 20.4
      vertex 47.2282 9.98529 20.4
    endloop
  endfacet
  facet normal 0 0 1
    outer loop
      vertex 40 2.5 20.4
      vertex 47.2282 9.98529 20.4
      vertex 47.0008 10.1247 20.4
    endloop
  endfacet
  facet normal 0 0 1
    outer loop
      vertex 48 9.8 20.4
      vertex 40 2.5 20.4
      vertex 56 2.5 20.4
    endloop
  endfacet
  facet normal 0 0 1
    outer loop
      vertex 46.7979 10.2979 20.4
      vertex 40 2.5 20.4
      vertex 47.0008 10.1247 20.4
    endloop
  endfacet
  facet normal 0 0 1
    outer loop
      vertex 46.6247 10.5008 20.4
      vertex 40 2.5 20.4
      vertex 46.7979 10.2979 20.4
    endloop
  endfacet
  facet normal 0 0 1
    outer loop
      vertex 46.4853 10.7282 20.4
      vertex 40 2.5 20.4
      vertex 46.6247 10.5008 20.4
    endloop
  endfacet
  facet normal 0 0 1
    outer loop
      vertex 46.3832 10.9747 20.4
      vertex 40 2.5 20.4
      vertex 46.4853 10.7282 20.4
    endloop
  endfacet
  facet normal 0 0 1
    outer loop
      vertex 46.3209 11.2341 20.4
      vertex 40 2.5 20.4
      vertex 46.3832 10.9747 20.4
    endloop
  endfacet
  facet normal 0 0 1
    outer loop
      vertex 46.3 11.5 20.4
      vertex 40 2.5 20.4
      vertex 46.3209 11.2341 20.4
    endloop
  endfacet
  facet normal 0 0 1
    outer loop
      vertex 40 2.5 20.4
      vertex 46.3 11.5 20.4
      vertex 40 125.5 20.4
    endloop
  endfacet
  facet normal 0 0 -1
    outer loop
      vertex 40 121.5 15.4
      vertex 56 122.417 15.4
      vertex 56 121.5 15.4
    endloop
  endfacet
  facet normal -0 0 -1
    outer loop
      vertex 56 122.417 15.4
      vertex 40 121.5 15.4
      vertex 40 122.417 15.4
    endloop
  endfacet
  facet normal 0 0 -1
    outer loop
      vertex 40 5.58283 15.4
      vertex 56 6.5 15.4
      vertex 56 5.58283 15.4
    endloop
  endfacet
  facet normal -0 0 -1
    outer loop
      vertex 56 6.5 15.4
      vertex 40 5.58283 15.4
      vertex 40 6.5 15.4
    endloop
  endfacet
  facet normal -1 0 0
    outer loop
      vertex 40 121.5 13.5
      vertex 40 6.5 13.5
      vertex 40 121.5 15.4
    endloop
  endfacet
  facet normal -1 0 0
    outer loop
      vertex 40 121.5 15.4
      vertex 40 125.5 18.4828
      vertex 40 122.417 15.4
    endloop
  endfacet
  facet normal -1 -0 0
    outer loop
      vertex 40 125.5 18.4828
      vertex 40 121.5 15.4
      vertex 40 125.5 20.4
    endloop
  endfacet
  facet normal -1 0 0
    outer loop
      vertex 40 6.5 15.4
      vertex 40 121.5 15.4
      vertex 40 6.5 13.5
    endloop
  endfacet
  facet normal -1 0 0
    outer loop
      vertex 40 121.5 15.4
      vertex 40 6.5 15.4
      vertex 40 125.5 20.4
    endloop
  endfacet
  facet normal -1 0 0
    outer loop
      vertex 40 2.5 18.4828
      vertex 40 6.5 15.4
      vertex 40 5.58283 15.4
    endloop
  endfacet
  facet normal -1 0 0
    outer loop
      vertex 40 6.5 15.4
      vertex 40 2.5 18.4828
      vertex 40 2.5 20.4
    endloop
  endfacet
  facet normal -1 0 0
    outer loop
      vertex 40 6.5 15.4
      vertex 40 2.5 20.4
      vertex 40 125.5 20.4
    endloop
  endfacet
  facet normal 0 1 -0
    outer loop
      vertex 56 125.5 18.4828
      vertex 40 125.5 20.4
      vertex 56 125.5 20.4
    endloop
  endfacet
  facet normal 0 1 0
    outer loop
      vertex 40 125.5 20.4
      vertex 56 125.5 18.4828
      vertex 40 125.5 18.4828
    endloop
  endfacet
  facet normal 0 -1 0
    outer loop
      vertex 40 2.5 18.4828
      vertex 56 2.5 20.4
      vertex 40 2.5 20.4
    endloop
  endfacet
  facet normal 0 -1 -0
    outer loop
      vertex 56 2.5 20.4
      vertex 40 2.5 18.4828
      vertex 56 2.5 18.4828
    endloop
  endfacet
  facet normal 0 0 -1
    outer loop
      vertex 56 6.5 13.5
      vertex 49.7 11.5 13.5
      vertex 56 121.5 13.5
    endloop
  endfacet
  facet normal 0 0 -1
    outer loop
      vertex 56 6.5 13.5
      vertex 49.6791 11.2341 13.5
      vertex 49.7 11.5 13.5
    endloop
  endfacet
  facet normal 0 0 -1
    outer loop
      vertex 56 6.5 13.5
      vertex 49.6168 10.9747 13.5
      vertex 49.6791 11.2341 13.5
    endloop
  endfacet
  facet normal 0 0 -1
    outer loop
      vertex 56 6.5 13.5
      vertex 49.5147 10.7282 13.5
      vertex 49.6168 10.9747 13.5
    endloop
  endfacet
  facet normal 0 0 -1
    outer loop
      vertex 56 6.5 13.5
      vertex 49.3753 10.5008 13.5
      vertex 49.5147 10.7282 13.5
    endloop
  endfacet
  facet normal 0 0 -1
    outer loop
      vertex 56 6.5 13.5
      vertex 49.2021 10.2979 13.5
      vertex 49.3753 10.5008 13.5
    endloop
  endfacet
  facet normal 0 0 -1
    outer loop
      vertex 56 6.5 13.5
      vertex 48.9992 10.1247 13.5
      vertex 49.2021 10.2979 13.5
    endloop
  endfacet
  facet normal 0 0 -1
    outer loop
      vertex 56 6.5 13.5
      vertex 48.7718 9.98529 13.5
      vertex 48.9992 10.1247 13.5
    endloop
  endfacet
  facet normal 0 0 -1
    outer loop
      vertex 56 6.5 13.5
      vertex 48.5253 9.8832 13.5
      vertex 48.7718 9.98529 13.5
    endloop
  endfacet
  facet normal 0 0 -1
    outer loop
      vertex 56 6.5 13.5
      vertex 48.2659 9.82093 13.5
      vertex 48.5253 9.8832 13.5
    endloop
  endfacet
  facet normal 0 0 -1
    outer loop
      vertex 56 6.5 13.5
      vertex 48 9.8 13.5
      vertex 48.2659 9.82093 13.5
    endloop
  endfacet
  facet normal 0 0 -1
    outer loop
      vertex 40 6.5 13.5
      vertex 48 9.8 13.5
      vertex 56 6.5 13.5
    endloop
  endfacet
  facet normal -0 0 -1
    outer loop
      vertex 48 9.8 13.5
      vertex 40 6.5 13.5
      vertex 47.7341 9.82093 13.5
    endloop
  endfacet
  facet normal -0 0 -1
    outer loop
      vertex 46.3 11.5 13.5
      vertex 40 6.5 13.5
      vertex 46.3 116.5 13.5
    endloop
  endfacet
  facet normal -0 0 -1
    outer loop
      vertex 46.3209 11.2341 13.5
      vertex 40 6.5 13.5
      vertex 46.3 11.5 13.5
    endloop
  endfacet
  facet normal -0 0 -1
    outer loop
      vertex 46.3832 10.9747 13.5
      vertex 40 6.5 13.5
      vertex 46.3209 11.2341 13.5
    endloop
  endfacet
  facet normal -0 0 -1
    outer loop
      vertex 46.4853 10.7282 13.5
      vertex 40 6.5 13.5
      vertex 46.3832 10.9747 13.5
    endloop
  endfacet
  facet normal -0 0 -1
    outer loop
      vertex 46.6247 10.5008 13.5
      vertex 40 6.5 13.5
      vertex 46.4853 10.7282 13.5
    endloop
  endfacet
  facet normal -0 0 -1
    outer loop
      vertex 46.7979 10.2979 13.5
      vertex 40 6.5 13.5
      vertex 46.6247 10.5008 13.5
    endloop
  endfacet
  facet normal -0 0 -1
    outer loop
      vertex 47.0008 10.1247 13.5
      vertex 40 6.5 13.5
      vertex 46.7979 10.2979 13.5
    endloop
  endfacet
  facet normal -0 0 -1
    outer loop
      vertex 47.2282 9.98529 13.5
      vertex 40 6.5 13.5
      vertex 47.0008 10.1247 13.5
    endloop
  endfacet
  facet normal -0 0 -1
    outer loop
      vertex 47.4747 9.8832 13.5
      vertex 40 6.5 13.5
      vertex 47.2282 9.98529 13.5
    endloop
  endfacet
  facet normal -0 0 -1
    outer loop
      vertex 47.7341 9.82093 13.5
      vertex 40 6.5 13.5
      vertex 47.4747 9.8832 13.5
    endloop
  endfacet
  facet normal 0 0 -1
    outer loop
      vertex 49.7 116.5 13.5
      vertex 56 121.5 13.5
      vertex 49.7 11.5 13.5
    endloop
  endfacet
  facet normal 0 0 -1
    outer loop
      vertex 49.6791 116.766 13.5
      vertex 56 121.5 13.5
      vertex 49.7 116.5 13.5
    endloop
  endfacet
  facet normal 0 0 -1
    outer loop
      vertex 49.6168 117.025 13.5
      vertex 56 121.5 13.5
      vertex 49.6791 116.766 13.5
    endloop
  endfacet
  facet normal 0 0 -1
    outer loop
      vertex 49.5147 117.272 13.5
      vertex 56 121.5 13.5
      vertex 49.6168 117.025 13.5
    endloop
  endfacet
  facet normal 0 0 -1
    outer loop
      vertex 49.3753 117.499 13.5
      vertex 56 121.5 13.5
      vertex 49.5147 117.272 13.5
    endloop
  endfacet
  facet normal 0 0 -1
    outer loop
      vertex 49.2021 117.702 13.5
      vertex 56 121.5 13.5
      vertex 49.3753 117.499 13.5
    endloop
  endfacet
  facet normal 0 0 -1
    outer loop
      vertex 48.9992 117.875 13.5
      vertex 56 121.5 13.5
      vertex 49.2021 117.702 13.5
    endloop
  endfacet
  facet normal 0 0 -1
    outer loop
      vertex 48.7718 118.015 13.5
      vertex 56 121.5 13.5
      vertex 48.9992 117.875 13.5
    endloop
  endfacet
  facet normal 0 0 -1
    outer loop
      vertex 48.5253 118.117 13.5
      vertex 56 121.5 13.5
      vertex 48.7718 118.015 13.5
    endloop
  endfacet
  facet normal 0 0 -1
    outer loop
      vertex 48.2659 118.179 13.5
      vertex 56 121.5 13.5
      vertex 48.5253 118.117 13.5
    endloop
  endfacet
  facet normal 0 0 -1
    outer loop
      vertex 48 118.2 13.5
      vertex 56 121.5 13.5
      vertex 48.2659 118.179 13.5
    endloop
  endfacet
  facet normal 0 0 -1
    outer loop
      vertex 40 121.5 13.5
      vertex 48 118.2 13.5
      vertex 47.7341 118.179 13.5
    endloop
  endfacet
  facet normal 0 0 -1
    outer loop
      vertex 40 121.5 13.5
      vertex 47.7341 118.179 13.5
      vertex 47.4747 118.117 13.5
    endloop
  endfacet
  facet normal 0 0 -1
    outer loop
      vertex 48 118.2 13.5
      vertex 40 121.5 13.5
      vertex 56 121.5 13.5
    endloop
  endfacet
  facet normal 0 0 -1
    outer loop
      vertex 47.2282 118.015 13.5
      vertex 40 121.5 13.5
      vertex 47.4747 118.117 13.5
    endloop
  endfacet
  facet normal 0 0 -1
    outer loop
      vertex 47.0008 117.875 13.5
      vertex 40 121.5 13.5
      vertex 47.2282 118.015 13.5
    endloop
  endfacet
  facet normal 0 0 -1
    outer loop
      vertex 46.7979 117.702 13.5
      vertex 40 121.5 13.5
      vertex 47.0008 117.875 13.5
    endloop
  endfacet
  facet normal 0 0 -1
    outer loop
      vertex 46.6247 117.499 13.5
      vertex 40 121.5 13.5
      vertex 46.7979 117.702 13.5
    endloop
  endfacet
  facet normal 0 0 -1
    outer loop
      vertex 46.4853 117.272 13.5
      vertex 40 121.5 13.5
      vertex 46.6247 117.499 13.5
    endloop
  endfacet
  facet normal 0 0 -1
    outer loop
      vertex 46.3832 117.025 13.5
      vertex 40 121.5 13.5
      vertex 46.4853 117.272 13.5
    endloop
  endfacet
  facet normal 0 0 -1
    outer loop
      vertex 46.3209 116.766 13.5
      vertex 40 121.5 13.5
      vertex 46.3832 117.025 13.5
    endloop
  endfacet
  facet normal 0 0 -1
    outer loop
      vertex 46.3 116.5 13.5
      vertex 40 121.5 13.5
      vertex 46.3209 116.766 13.5
    endloop
  endfacet
  facet normal 0 0 -1
    outer loop
      vertex 40 121.5 13.5
      vertex 46.3 116.5 13.5
      vertex 40 6.5 13.5
    endloop
  endfacet
  facet normal 0 1 -0
    outer loop
      vertex 56 121.5 13.5
      vertex 40 121.5 15.4
      vertex 56 121.5 15.4
    endloop
  endfacet
  facet normal 0 1 0
    outer loop
      vertex 40 121.5 15.4
      vertex 56 121.5 13.5
      vertex 40 121.5 13.5
    endloop
  endfacet
  facet normal 0 -1 0
    outer loop
      vertex 40 6.5 13.5
      vertex 56 6.5 15.4
      vertex 40 6.5 15.4
    endloop
  endfacet
  facet normal 0 -1 -0
    outer loop
      vertex 56 6.5 15.4
      vertex 40 6.5 13.5
      vertex 56 6.5 13.5
    endloop
  endfacet
  facet normal 0 -0.707103 -0.70711
    outer loop
      vertex 40 5.58283 15.4
      vertex 56 2.5 18.4828
      vertex 40 2.5 18.4828
    endloop
  endfacet
  facet normal 0 -0.707103 -0.70711
    outer loop
      vertex 56 2.5 18.4828
      vertex 40 5.58283 15.4
      vertex 56 5.58283 15.4
    endloop
  endfacet
  facet normal 0 0.707084 -0.70713
    outer loop
      vertex 56 122.417 15.4
      vertex 40 125.5 18.4828
      vertex 56 125.5 18.4828
    endloop
  endfacet
  facet normal 0 0.707084 -0.70713
    outer loop
      vertex 40 125.5 18.4828
      vertex 56 122.417 15.4
      vertex 40 122.417 15.4
    endloop
  endfacet
  facet normal -1 0 0
    outer loop
      vertex 49.7 11.5 13.5
      vertex 49.7 116.5 20.4
      vertex 49.7 116.5 13.5
    endloop
  endfacet
  facet normal -1 -0 0
    outer loop
      vertex 49.7 116.5 20.4
      vertex 49.7 11.5 13.5
      vertex 49.7 11.5 20.4
    endloop
  endfacet
  facet normal 0.972268 -0.23387 0
    outer loop
      vertex 46.3209 116.766 20.4
      vertex 46.3832 117.025 13.5
      vertex 46.3832 117.025 20.4
    endloop
  endfacet
  facet normal 0.972268 -0.23387 0
    outer loop
      vertex 46.3832 117.025 13.5
      vertex 46.3209 116.766 20.4
      vertex 46.3209 116.766 13.5
    endloop
  endfacet
  facet normal 1 -0 0
    outer loop
      vertex 46.3 11.5 20.4
      vertex 46.3 116.5 13.5
      vertex 46.3 116.5 20.4
    endloop
  endfacet
  facet normal 1 0 0
    outer loop
      vertex 46.3 116.5 13.5
      vertex 46.3 11.5 20.4
      vertex 46.3 11.5 13.5
    endloop
  endfacet
  facet normal 0.996925 0.0783593 0
    outer loop
      vertex 46.3209 11.2341 20.4
      vertex 46.3 11.5 13.5
      vertex 46.3 11.5 20.4
    endloop
  endfacet
  facet normal 0.996925 0.0783593 0
    outer loop
      vertex 46.3 11.5 13.5
      vertex 46.3209 11.2341 20.4
      vertex 46.3209 11.2341 13.5
    endloop
  endfacet
  facet normal 0.996927 -0.07833 0
    outer loop
      vertex 46.3 116.5 20.4
      vertex 46.3209 116.766 13.5
      vertex 46.3209 116.766 20.4
    endloop
  endfacet
  facet normal 0.996927 -0.07833 0
    outer loop
      vertex 46.3209 116.766 13.5
      vertex 46.3 116.5 20.4
      vertex 46.3 116.5 13.5
    endloop
  endfacet
  facet normal 0.38264 0.923898 -0
    outer loop
      vertex 47.4747 9.8832 13.5
      vertex 47.2282 9.98529 20.4
      vertex 47.4747 9.8832 20.4
    endloop
  endfacet
  facet normal 0.38264 0.923898 0
    outer loop
      vertex 47.2282 9.98529 20.4
      vertex 47.4747 9.8832 13.5
      vertex 47.2282 9.98529 13.5
    endloop
  endfacet
  facet normal -0.923884 0.382672 0
    outer loop
      vertex 49.5147 10.7282 13.5
      vertex 49.6168 10.9747 20.4
      vertex 49.6168 10.9747 13.5
    endloop
  endfacet
  facet normal -0.923884 0.382672 0
    outer loop
      vertex 49.6168 10.9747 20.4
      vertex 49.5147 10.7282 13.5
      vertex 49.5147 10.7282 20.4
    endloop
  endfacet
  facet normal 0.97235 0.233529 0
    outer loop
      vertex 46.3832 10.9747 20.4
      vertex 46.3209 11.2341 13.5
      vertex 46.3209 11.2341 20.4
    endloop
  endfacet
  facet normal 0.97235 0.233529 0
    outer loop
      vertex 46.3209 11.2341 13.5
      vertex 46.3832 10.9747 20.4
      vertex 46.3832 10.9747 13.5
    endloop
  endfacet
  facet normal 0.648813 -0.760948 0
    outer loop
      vertex 46.7979 117.702 13.5
      vertex 47.0008 117.875 20.4
      vertex 46.7979 117.702 20.4
    endloop
  endfacet
  facet normal 0.648813 -0.760948 0
    outer loop
      vertex 47.0008 117.875 20.4
      vertex 46.7979 117.702 13.5
      vertex 47.0008 117.875 13.5
    endloop
  endfacet
  facet normal 0.0784711 0.996916 -0
    outer loop
      vertex 48 9.8 13.5
      vertex 47.7341 9.82093 20.4
      vertex 48 9.8 20.4
    endloop
  endfacet
  facet normal 0.0784711 0.996916 0
    outer loop
      vertex 47.7341 9.82093 20.4
      vertex 48 9.8 13.5
      vertex 47.7341 9.82093 13.5
    endloop
  endfacet
  facet normal -0.924158 -0.38201 0
    outer loop
      vertex 49.6168 117.025 13.5
      vertex 49.5147 117.272 20.4
      vertex 49.5147 117.272 13.5
    endloop
  endfacet
  facet normal -0.924158 -0.38201 0
    outer loop
      vertex 49.5147 117.272 20.4
      vertex 49.6168 117.025 13.5
      vertex 49.6168 117.025 20.4
    endloop
  endfacet
  facet normal -0.996927 -0.07833 0
    outer loop
      vertex 49.7 116.5 13.5
      vertex 49.6791 116.766 20.4
      vertex 49.6791 116.766 13.5
    endloop
  endfacet
  facet normal -0.996927 -0.07833 0
    outer loop
      vertex 49.6791 116.766 20.4
      vertex 49.7 116.5 13.5
      vertex 49.7 116.5 20.4
    endloop
  endfacet
  facet normal 0.852558 0.522632 0
    outer loop
      vertex 46.6247 10.5008 20.4
      vertex 46.4853 10.7282 13.5
      vertex 46.4853 10.7282 20.4
    endloop
  endfacet
  facet normal 0.852558 0.522632 0
    outer loop
      vertex 46.4853 10.7282 13.5
      vertex 46.6247 10.5008 20.4
      vertex 46.6247 10.5008 13.5
    endloop
  endfacet
  facet normal -0.760736 -0.649061 0
    outer loop
      vertex 49.3753 117.499 13.5
      vertex 49.2021 117.702 20.4
      vertex 49.2021 117.702 13.5
    endloop
  endfacet
  facet normal -0.760736 -0.649061 0
    outer loop
      vertex 49.2021 117.702 20.4
      vertex 49.3753 117.499 13.5
      vertex 49.3753 117.499 20.4
    endloop
  endfacet
  facet normal -0.0787319 -0.996896 0
    outer loop
      vertex 48 118.2 13.5
      vertex 48.2659 118.179 20.4
      vertex 48 118.2 20.4
    endloop
  endfacet
  facet normal -0.0787319 -0.996896 -0
    outer loop
      vertex 48.2659 118.179 20.4
      vertex 48 118.2 13.5
      vertex 48.2659 118.179 13.5
    endloop
  endfacet
  facet normal -0.52266 0.852541 0
    outer loop
      vertex 48.9992 10.1247 13.5
      vertex 48.7718 9.98529 20.4
      vertex 48.9992 10.1247 20.4
    endloop
  endfacet
  facet normal -0.52266 0.852541 0
    outer loop
      vertex 48.7718 9.98529 20.4
      vertex 48.9992 10.1247 13.5
      vertex 48.7718 9.98529 13.5
    endloop
  endfacet
  facet normal -0.0784711 0.996916 0
    outer loop
      vertex 48.2659 9.82093 13.5
      vertex 48 9.8 20.4
      vertex 48.2659 9.82093 20.4
    endloop
  endfacet
  facet normal -0.0784711 0.996916 0
    outer loop
      vertex 48 9.8 20.4
      vertex 48.2659 9.82093 13.5
      vertex 48 9.8 13.5
    endloop
  endfacet
  facet normal 0.382352 -0.924017 0
    outer loop
      vertex 47.2282 118.015 13.5
      vertex 47.4747 118.117 20.4
      vertex 47.2282 118.015 20.4
    endloop
  endfacet
  facet normal 0.382352 -0.924017 0
    outer loop
      vertex 47.4747 118.117 20.4
      vertex 47.2282 118.015 13.5
      vertex 47.4747 118.117 13.5
    endloop
  endfacet
  facet normal 0.923884 0.382672 0
    outer loop
      vertex 46.4853 10.7282 20.4
      vertex 46.3832 10.9747 13.5
      vertex 46.3832 10.9747 20.4
    endloop
  endfacet
  facet normal 0.923884 0.382672 0
    outer loop
      vertex 46.3832 10.9747 13.5
      vertex 46.4853 10.7282 20.4
      vertex 46.4853 10.7282 13.5
    endloop
  endfacet
  facet normal 0.924158 -0.38201 0
    outer loop
      vertex 46.3832 117.025 20.4
      vertex 46.4853 117.272 13.5
      vertex 46.4853 117.272 20.4
    endloop
  endfacet
  facet normal 0.924158 -0.38201 0
    outer loop
      vertex 46.4853 117.272 13.5
      vertex 46.3832 117.025 20.4
      vertex 46.3832 117.025 13.5
    endloop
  endfacet
  facet normal -0.524265 -0.851555 0
    outer loop
      vertex 48.7718 118.015 13.5
      vertex 48.9992 117.875 20.4
      vertex 48.7718 118.015 20.4
    endloop
  endfacet
  facet normal -0.524265 -0.851555 -0
    outer loop
      vertex 48.9992 117.875 20.4
      vertex 48.7718 118.015 13.5
      vertex 48.9992 117.875 13.5
    endloop
  endfacet
  facet normal -0.649247 0.760578 0
    outer loop
      vertex 49.2021 10.2979 13.5
      vertex 48.9992 10.1247 20.4
      vertex 49.2021 10.2979 20.4
    endloop
  endfacet
  facet normal -0.649247 0.760578 0
    outer loop
      vertex 48.9992 10.1247 20.4
      vertex 49.2021 10.2979 13.5
      vertex 48.9992 10.1247 13.5
    endloop
  endfacet
  facet normal 0.760578 0.649247 0
    outer loop
      vertex 46.7979 10.2979 20.4
      vertex 46.6247 10.5008 13.5
      vertex 46.6247 10.5008 20.4
    endloop
  endfacet
  facet normal 0.760578 0.649247 0
    outer loop
      vertex 46.6247 10.5008 13.5
      vertex 46.7979 10.2979 20.4
      vertex 46.7979 10.2979 13.5
    endloop
  endfacet
  facet normal 0.760736 -0.649061 0
    outer loop
      vertex 46.6247 117.499 20.4
      vertex 46.7979 117.702 13.5
      vertex 46.7979 117.702 20.4
    endloop
  endfacet
  facet normal 0.760736 -0.649061 0
    outer loop
      vertex 46.7979 117.702 13.5
      vertex 46.6247 117.499 20.4
      vertex 46.6247 117.499 13.5
    endloop
  endfacet
  facet normal 0.852148 -0.523301 0
    outer loop
      vertex 46.4853 117.272 20.4
      vertex 46.6247 117.499 13.5
      vertex 46.6247 117.499 20.4
    endloop
  endfacet
  facet normal 0.852148 -0.523301 0
    outer loop
      vertex 46.6247 117.499 13.5
      vertex 46.4853 117.272 20.4
      vertex 46.4853 117.272 13.5
    endloop
  endfacet
  facet normal 0.649247 0.760578 -0
    outer loop
      vertex 47.0008 10.1247 13.5
      vertex 46.7979 10.2979 20.4
      vertex 47.0008 10.1247 20.4
    endloop
  endfacet
  facet normal 0.649247 0.760578 0
    outer loop
      vertex 46.7979 10.2979 20.4
      vertex 47.0008 10.1247 13.5
      vertex 46.7979 10.2979 13.5
    endloop
  endfacet
  facet normal 0.52266 0.852541 -0
    outer loop
      vertex 47.2282 9.98529 13.5
      vertex 47.0008 10.1247 20.4
      vertex 47.2282 9.98529 20.4
    endloop
  endfacet
  facet normal 0.52266 0.852541 0
    outer loop
      vertex 47.0008 10.1247 20.4
      vertex 47.2282 9.98529 13.5
      vertex 47.0008 10.1247 13.5
    endloop
  endfacet
  facet normal -0.852148 -0.523301 0
    outer loop
      vertex 49.5147 117.272 13.5
      vertex 49.3753 117.499 20.4
      vertex 49.3753 117.499 13.5
    endloop
  endfacet
  facet normal -0.852148 -0.523301 0
    outer loop
      vertex 49.3753 117.499 20.4
      vertex 49.5147 117.272 13.5
      vertex 49.5147 117.272 20.4
    endloop
  endfacet
  facet normal -0.97235 0.233529 0
    outer loop
      vertex 49.6168 10.9747 13.5
      vertex 49.6791 11.2341 20.4
      vertex 49.6791 11.2341 13.5
    endloop
  endfacet
  facet normal -0.97235 0.233529 0
    outer loop
      vertex 49.6791 11.2341 20.4
      vertex 49.6168 10.9747 13.5
      vertex 49.6168 10.9747 20.4
    endloop
  endfacet
  facet normal -0.38264 0.923898 0
    outer loop
      vertex 48.7718 9.98529 13.5
      vertex 48.5253 9.8832 20.4
      vertex 48.7718 9.98529 20.4
    endloop
  endfacet
  facet normal -0.38264 0.923898 0
    outer loop
      vertex 48.5253 9.8832 20.4
      vertex 48.7718 9.98529 13.5
      vertex 48.5253 9.8832 13.5
    endloop
  endfacet
  facet normal 0.232465 -0.972605 0
    outer loop
      vertex 47.4747 118.117 13.5
      vertex 47.7341 118.179 20.4
      vertex 47.4747 118.117 20.4
    endloop
  endfacet
  facet normal 0.232465 -0.972605 0
    outer loop
      vertex 47.7341 118.179 20.4
      vertex 47.4747 118.117 13.5
      vertex 47.7341 118.179 13.5
    endloop
  endfacet
  facet normal -0.972268 -0.23387 0
    outer loop
      vertex 49.6791 116.766 13.5
      vertex 49.6168 117.025 20.4
      vertex 49.6168 117.025 13.5
    endloop
  endfacet
  facet normal -0.972268 -0.23387 0
    outer loop
      vertex 49.6168 117.025 20.4
      vertex 49.6791 116.766 13.5
      vertex 49.6791 116.766 20.4
    endloop
  endfacet
  facet normal 0.0787319 -0.996896 0
    outer loop
      vertex 47.7341 118.179 13.5
      vertex 48 118.2 20.4
      vertex 47.7341 118.179 20.4
    endloop
  endfacet
  facet normal 0.0787319 -0.996896 0
    outer loop
      vertex 48 118.2 20.4
      vertex 47.7341 118.179 13.5
      vertex 48 118.2 13.5
    endloop
  endfacet
  facet normal -0.648813 -0.760948 0
    outer loop
      vertex 48.9992 117.875 13.5
      vertex 49.2021 117.702 20.4
      vertex 48.9992 117.875 20.4
    endloop
  endfacet
  facet normal -0.648813 -0.760948 -0
    outer loop
      vertex 49.2021 117.702 20.4
      vertex 48.9992 117.875 13.5
      vertex 49.2021 117.702 13.5
    endloop
  endfacet
  facet normal 0.524265 -0.851555 0
    outer loop
      vertex 47.0008 117.875 13.5
      vertex 47.2282 118.015 20.4
      vertex 47.0008 117.875 20.4
    endloop
  endfacet
  facet normal 0.524265 -0.851555 0
    outer loop
      vertex 47.2282 118.015 20.4
      vertex 47.0008 117.875 13.5
      vertex 47.2282 118.015 13.5
    endloop
  endfacet
  facet normal -0.382352 -0.924017 0
    outer loop
      vertex 48.5253 118.117 13.5
      vertex 48.7718 118.015 20.4
      vertex 48.5253 118.117 20.4
    endloop
  endfacet
  facet normal -0.382352 -0.924017 -0
    outer loop
      vertex 48.7718 118.015 20.4
      vertex 48.5253 118.117 13.5
      vertex 48.7718 118.015 13.5
    endloop
  endfacet
  facet normal -0.233423 0.972375 0
    outer loop
      vertex 48.5253 9.8832 13.5
      vertex 48.2659 9.82093 20.4
      vertex 48.5253 9.8832 20.4
    endloop
  endfacet
  facet normal -0.233423 0.972375 0
    outer loop
      vertex 48.2659 9.82093 20.4
      vertex 48.5253 9.8832 13.5
      vertex 48.2659 9.82093 13.5
    endloop
  endfacet
  facet normal 0.233423 0.972375 -0
    outer loop
      vertex 47.7341 9.82093 13.5
      vertex 47.4747 9.8832 20.4
      vertex 47.7341 9.82093 20.4
    endloop
  endfacet
  facet normal 0.233423 0.972375 0
    outer loop
      vertex 47.4747 9.8832 20.4
      vertex 47.7341 9.82093 13.5
      vertex 47.4747 9.8832 13.5
    endloop
  endfacet
  facet normal -0.996925 0.0783593 0
    outer loop
      vertex 49.6791 11.2341 13.5
      vertex 49.7 11.5 20.4
      vertex 49.7 11.5 13.5
    endloop
  endfacet
  facet normal -0.996925 0.0783593 0
    outer loop
      vertex 49.7 11.5 20.4
      vertex 49.6791 11.2341 13.5
      vertex 49.6791 11.2341 20.4
    endloop
  endfacet
  facet normal -0.760578 0.649247 0
    outer loop
      vertex 49.2021 10.2979 13.5
      vertex 49.3753 10.5008 20.4
      vertex 49.3753 10.5008 13.5
    endloop
  endfacet
  facet normal -0.760578 0.649247 0
    outer loop
      vertex 49.3753 10.5008 20.4
      vertex 49.2021 10.2979 13.5
      vertex 49.2021 10.2979 20.4
    endloop
  endfacet
  facet normal -0.232465 -0.972605 0
    outer loop
      vertex 48.2659 118.179 13.5
      vertex 48.5253 118.117 20.4
      vertex 48.2659 118.179 20.4
    endloop
  endfacet
  facet normal -0.232465 -0.972605 -0
    outer loop
      vertex 48.5253 118.117 20.4
      vertex 48.2659 118.179 13.5
      vertex 48.5253 118.117 13.5
    endloop
  endfacet
  facet normal -0.852558 0.522632 0
    outer loop
      vertex 49.3753 10.5008 13.5
      vertex 49.5147 10.7282 20.4
      vertex 49.5147 10.7282 13.5
    endloop
  endfacet
  facet normal -0.852558 0.522632 0
    outer loop
      vertex 49.5147 10.7282 20.4
      vertex 49.3753 10.5008 13.5
      vertex 49.3753 10.5008 20.4
    endloop
  endfacet
endsolid OpenSCAD_Model
