solid OpenSCAD_Model
  facet normal 1 0 0
    outer loop
      vertex 216 121.5 15.4
      vertex 216 125.5 18.4828
      vertex 216 125.5 20.4
    endloop
  endfacet
  facet normal 1 0 0
    outer loop
      vertex 216 125.5 18.4828
      vertex 216 121.5 15.4
      vertex 216 122.417 15.4
    endloop
  endfacet
  facet normal 1 0 0
    outer loop
      vertex 216 121.5 15.4
      vertex 216 6.5 15.4
      vertex 216 121.5 13.5
    endloop
  endfacet
  facet normal 1 0 0
    outer loop
      vertex 216 125.5 20.4
      vertex 216 6.5 15.4
      vertex 216 121.5 15.4
    endloop
  endfacet
  facet normal 1 -0 0
    outer loop
      vertex 216 2.5 20.4
      vertex 216 6.5 15.4
      vertex 216 125.5 20.4
    endloop
  endfacet
  facet normal 1 -0 0
    outer loop
      vertex 216 2.5 18.4828
      vertex 216 6.5 15.4
      vertex 216 2.5 20.4
    endloop
  endfacet
  facet normal 1 0 0
    outer loop
      vertex 216 6.5 15.4
      vertex 216 2.5 18.4828
      vertex 216 5.58283 15.4
    endloop
  endfacet
  facet normal 1 0 0
    outer loop
      vertex 216 121.5 13.5
      vertex 216 6.5 15.4
      vertex 216 6.5 13.5
    endloop
  endfacet
  facet normal 0 0 1
    outer loop
      vertex 216 125.5 20.4
      vertex 209.7 116.5 20.4
      vertex 216 2.5 20.4
    endloop
  endfacet
  facet normal 0 0 1
    outer loop
      vertex 216 125.5 20.4
      vertex 209.679 116.766 20.4
      vertex 209.7 116.5 20.4
    endloop
  endfacet
  facet normal 0 0 1
    outer loop
      vertex 216 125.5 20.4
      vertex 209.617 117.025 20.4
      vertex 209.679 116.766 20.4
    endloop
  endfacet
  facet normal 0 0 1
    outer loop
      vertex 216 125.5 20.4
      vertex 209.515 117.272 20.4
      vertex 209.617 117.025 20.4
    endloop
  endfacet
  facet normal 0 0 1
    outer loop
      vertex 216 125.5 20.4
      vertex 209.375 117.499 20.4
      vertex 209.515 117.272 20.4
    endloop
  endfacet
  facet normal 0 0 1
    outer loop
      vertex 216 125.5 20.4
      vertex 209.202 117.702 20.4
      vertex 209.375 117.499 20.4
    endloop
  endfacet
  facet normal 0 0 1
    outer loop
      vertex 216 125.5 20.4
      vertex 208.999 117.875 20.4
      vertex 209.202 117.702 20.4
    endloop
  endfacet
  facet normal 0 0 1
    outer loop
      vertex 216 125.5 20.4
      vertex 208.772 118.015 20.4
      vertex 208.999 117.875 20.4
    endloop
  endfacet
  facet normal 0 0 1
    outer loop
      vertex 216 125.5 20.4
      vertex 208.525 118.117 20.4
      vertex 208.772 118.015 20.4
    endloop
  endfacet
  facet normal 0 0 1
    outer loop
      vertex 216 125.5 20.4
      vertex 208.266 118.179 20.4
      vertex 208.525 118.117 20.4
    endloop
  endfacet
  facet normal 0 0 1
    outer loop
      vertex 216 125.5 20.4
      vertex 208 118.2 20.4
      vertex 208.266 118.179 20.4
    endloop
  endfacet
  facet normal -0 0 1
    outer loop
      vertex 200 125.5 20.4
      vertex 208 118.2 20.4
      vertex 216 125.5 20.4
    endloop
  endfacet
  facet normal 0 0 1
    outer loop
      vertex 208 118.2 20.4
      vertex 200 125.5 20.4
      vertex 207.734 118.179 20.4
    endloop
  endfacet
  facet normal 0 0 1
    outer loop
      vertex 207.734 118.179 20.4
      vertex 200 125.5 20.4
      vertex 207.475 118.117 20.4
    endloop
  endfacet
  facet normal 0 0 1
    outer loop
      vertex 207.475 118.117 20.4
      vertex 200 125.5 20.4
      vertex 207.228 118.015 20.4
    endloop
  endfacet
  facet normal 0 0 1
    outer loop
      vertex 206.3 116.5 20.4
      vertex 200 125.5 20.4
      vertex 206.3 11.5 20.4
    endloop
  endfacet
  facet normal 0 0 1
    outer loop
      vertex 206.321 116.766 20.4
      vertex 200 125.5 20.4
      vertex 206.3 116.5 20.4
    endloop
  endfacet
  facet normal 0 0 1
    outer loop
      vertex 206.383 117.025 20.4
      vertex 200 125.5 20.4
      vertex 206.321 116.766 20.4
    endloop
  endfacet
  facet normal 0 0 1
    outer loop
      vertex 206.485 117.272 20.4
      vertex 200 125.5 20.4
      vertex 206.383 117.025 20.4
    endloop
  endfacet
  facet normal 0 0 1
    outer loop
      vertex 206.625 117.499 20.4
      vertex 200 125.5 20.4
      vertex 206.485 117.272 20.4
    endloop
  endfacet
  facet normal 0 0 1
    outer loop
      vertex 206.798 117.702 20.4
      vertex 200 125.5 20.4
      vertex 206.625 117.499 20.4
    endloop
  endfacet
  facet normal 0 0 1
    outer loop
      vertex 207.001 117.875 20.4
      vertex 200 125.5 20.4
      vertex 206.798 117.702 20.4
    endloop
  endfacet
  facet normal 0 0 1
    outer loop
      vertex 207.228 118.015 20.4
      vertex 200 125.5 20.4
      vertex 207.001 117.875 20.4
    endloop
  endfacet
  facet normal -0 0 1
    outer loop
      vertex 209.7 11.5 20.4
      vertex 216 2.5 20.4
      vertex 209.7 116.5 20.4
    endloop
  endfacet
  facet normal -0 0 1
    outer loop
      vertex 209.679 11.2341 20.4
      vertex 216 2.5 20.4
      vertex 209.7 11.5 20.4
    endloop
  endfacet
  facet normal -0 0 1
    outer loop
      vertex 209.617 10.9747 20.4
      vertex 216 2.5 20.4
      vertex 209.679 11.2341 20.4
    endloop
  endfacet
  facet normal -0 0 1
    outer loop
      vertex 209.515 10.7282 20.4
      vertex 216 2.5 20.4
      vertex 209.617 10.9747 20.4
    endloop
  endfacet
  facet normal -0 0 1
    outer loop
      vertex 209.375 10.5008 20.4
      vertex 216 2.5 20.4
      vertex 209.515 10.7282 20.4
    endloop
  endfacet
  facet normal -0 0 1
    outer loop
      vertex 209.202 10.2979 20.4
      vertex 216 2.5 20.4
      vertex 209.375 10.5008 20.4
    endloop
  endfacet
  facet normal -0 0 1
    outer loop
      vertex 208.999 10.1247 20.4
      vertex 216 2.5 20.4
      vertex 209.202 10.2979 20.4
    endloop
  endfacet
  facet normal -0 0 1
    outer loop
      vertex 208.772 9.98529 20.4
      vertex 216 2.5 20.4
      vertex 208.999 10.1247 20.4
    endloop
  endfacet
  facet normal -0 0 1
    outer loop
      vertex 208.525 9.8832 20.4
      vertex 216 2.5 20.4
      vertex 208.772 9.98529 20.4
    endloop
  endfacet
  facet normal -0 0 1
    outer loop
      vertex 208.266 9.82093 20.4
      vertex 216 2.5 20.4
      vertex 208.525 9.8832 20.4
    endloop
  endfacet
  facet normal -0 0 1
    outer loop
      vertex 208 9.8 20.4
      vertex 216 2.5 20.4
      vertex 208.266 9.82093 20.4
    endloop
  endfacet
  facet normal 0 0 1
    outer loop
      vertex 200 2.5 20.4
      vertex 208 9.8 20.4
      vertex 207.734 9.82093 20.4
    endloop
  endfacet
  facet normal 0 0 1
    outer loop
      vertex 200 2.5 20.4
      vertex 207.734 9.82093 20.4
      vertex 207.475 9.8832 20.4
    endloop
  endfacet
  facet normal 0 0 1
    outer loop
      vertex 200 2.5 20.4
      vertex 207.475 9.8832 20.4
      vertex 207.228 9.98529 20.4
    endloop
  endfacet
  facet normal 0 0 1
    outer loop
      vertex 200 2.5 20.4
      vertex 207.228 9.98529 20.4
      vertex 207.001 10.1247 20.4
    endloop
  endfacet
  facet normal 0 0 1
    outer loop
      vertex 208 9.8 20.4
      vertex 200 2.5 20.4
      vertex 216 2.5 20.4
    endloop
  endfacet
  facet normal 0 0 1
    outer loop
      vertex 206.798 10.2979 20.4
      vertex 200 2.5 20.4
      vertex 207.001 10.1247 20.4
    endloop
  endfacet
  facet normal 0 0 1
    outer loop
      vertex 206.625 10.5008 20.4
      vertex 200 2.5 20.4
      vertex 206.798 10.2979 20.4
    endloop
  endfacet
  facet normal 0 0 1
    outer loop
      vertex 206.485 10.7282 20.4
      vertex 200 2.5 20.4
      vertex 206.625 10.5008 20.4
    endloop
  endfacet
  facet normal 0 0 1
    outer loop
      vertex 206.383 10.9747 20.4
      vertex 200 2.5 20.4
      vertex 206.485 10.7282 20.4
    endloop
  endfacet
  facet normal 0 0 1
    outer loop
      vertex 206.321 11.2341 20.4
      vertex 200 2.5 20.4
      vertex 206.383 10.9747 20.4
    endloop
  endfacet
  facet normal 0 0 1
    outer loop
      vertex 206.3 11.5 20.4
      vertex 200 2.5 20.4
      vertex 206.321 11.2341 20.4
    endloop
  endfacet
  facet normal 0 0 1
    outer loop
      vertex 200 2.5 20.4
      vertex 206.3 11.5 20.4
      vertex 200 125.5 20.4
    endloop
  endfacet
  facet normal 0 0 -1
    outer loop
      vertex 200 121.5 15.4
      vertex 216 122.417 15.4
      vertex 216 121.5 15.4
    endloop
  endfacet
  facet normal -0 0 -1
    outer loop
      vertex 216 122.417 15.4
      vertex 200 121.5 15.4
      vertex 200 122.417 15.4
    endloop
  endfacet
  facet normal 0 0 -1
    outer loop
      vertex 200 5.58283 15.4
      vertex 216 6.5 15.4
      vertex 216 5.58283 15.4
    endloop
  endfacet
  facet normal -0 0 -1
    outer loop
      vertex 216 6.5 15.4
      vertex 200 5.58283 15.4
      vertex 200 6.5 15.4
    endloop
  endfacet
  facet normal -1 0 0
    outer loop
      vertex 200 121.5 13.5
      vertex 200 6.5 13.5
      vertex 200 121.5 15.4
    endloop
  endfacet
  facet normal -1 0 0
    outer loop
      vertex 200 121.5 15.4
      vertex 200 125.5 18.4828
      vertex 200 122.417 15.4
    endloop
  endfacet
  facet normal -1 -0 0
    outer loop
      vertex 200 125.5 18.4828
      vertex 200 121.5 15.4
      vertex 200 125.5 20.4
    endloop
  endfacet
  facet normal -1 0 0
    outer loop
      vertex 200 6.5 15.4
      vertex 200 121.5 15.4
      vertex 200 6.5 13.5
    endloop
  endfacet
  facet normal -1 0 0
    outer loop
      vertex 200 121.5 15.4
      vertex 200 6.5 15.4
      vertex 200 125.5 20.4
    endloop
  endfacet
  facet normal -1 0 0
    outer loop
      vertex 200 2.5 18.4828
      vertex 200 6.5 15.4
      vertex 200 5.58283 15.4
    endloop
  endfacet
  facet normal -1 0 0
    outer loop
      vertex 200 6.5 15.4
      vertex 200 2.5 18.4828
      vertex 200 2.5 20.4
    endloop
  endfacet
  facet normal -1 0 0
    outer loop
      vertex 200 6.5 15.4
      vertex 200 2.5 20.4
      vertex 200 125.5 20.4
    endloop
  endfacet
  facet normal 0 1 -0
    outer loop
      vertex 216 125.5 18.4828
      vertex 200 125.5 20.4
      vertex 216 125.5 20.4
    endloop
  endfacet
  facet normal 0 1 0
    outer loop
      vertex 200 125.5 20.4
      vertex 216 125.5 18.4828
      vertex 200 125.5 18.4828
    endloop
  endfacet
  facet normal 0 -1 0
    outer loop
      vertex 200 2.5 18.4828
      vertex 216 2.5 20.4
      vertex 200 2.5 20.4
    endloop
  endfacet
  facet normal 0 -1 -0
    outer loop
      vertex 216 2.5 20.4
      vertex 200 2.5 18.4828
      vertex 216 2.5 18.4828
    endloop
  endfacet
  facet normal 0 0 -1
    outer loop
      vertex 216 6.5 13.5
      vertex 209.7 11.5 13.5
      vertex 216 121.5 13.5
    endloop
  endfacet
  facet normal 0 0 -1
    outer loop
      vertex 216 6.5 13.5
      vertex 209.679 11.2341 13.5
      vertex 209.7 11.5 13.5
    endloop
  endfacet
  facet normal 0 0 -1
    outer loop
      vertex 216 6.5 13.5
      vertex 209.617 10.9747 13.5
      vertex 209.679 11.2341 13.5
    endloop
  endfacet
  facet normal 0 0 -1
    outer loop
      vertex 216 6.5 13.5
      vertex 209.515 10.7282 13.5
      vertex 209.617 10.9747 13.5
    endloop
  endfacet
  facet normal 0 0 -1
    outer loop
      vertex 216 6.5 13.5
      vertex 209.375 10.5008 13.5
      vertex 209.515 10.7282 13.5
    endloop
  endfacet
  facet normal 0 0 -1
    outer loop
      vertex 216 6.5 13.5
      vertex 209.202 10.2979 13.5
      vertex 209.375 10.5008 13.5
    endloop
  endfacet
  facet normal 0 0 -1
    outer loop
      vertex 216 6.5 13.5
      vertex 208.999 10.1247 13.5
      vertex 209.202 10.2979 13.5
    endloop
  endfacet
  facet normal 0 0 -1
    outer loop
      vertex 216 6.5 13.5
      vertex 208.772 9.98529 13.5
      vertex 208.999 10.1247 13.5
    endloop
  endfacet
  facet normal 0 0 -1
    outer loop
      vertex 216 6.5 13.5
      vertex 208.525 9.8832 13.5
      vertex 208.772 9.98529 13.5
    endloop
  endfacet
  facet normal 0 0 -1
    outer loop
      vertex 216 6.5 13.5
      vertex 208.266 9.82093 13.5
      vertex 208.525 9.8832 13.5
    endloop
  endfacet
  facet normal 0 0 -1
    outer loop
      vertex 216 6.5 13.5
      vertex 208 9.8 13.5
      vertex 208.266 9.82093 13.5
    endloop
  endfacet
  facet normal 0 0 -1
    outer loop
      vertex 200 6.5 13.5
      vertex 208 9.8 13.5
      vertex 216 6.5 13.5
    endloop
  endfacet
  facet normal -0 0 -1
    outer loop
      vertex 208 9.8 13.5
      vertex 200 6.5 13.5
      vertex 207.734 9.82093 13.5
    endloop
  endfacet
  facet normal -0 0 -1
    outer loop
      vertex 206.3 11.5 13.5
      vertex 200 6.5 13.5
      vertex 206.3 116.5 13.5
    endloop
  endfacet
  facet normal -0 0 -1
    outer loop
      vertex 206.321 11.2341 13.5
      vertex 200 6.5 13.5
      vertex 206.3 11.5 13.5
    endloop
  endfacet
  facet normal -0 0 -1
    outer loop
      vertex 206.383 10.9747 13.5
      vertex 200 6.5 13.5
      vertex 206.321 11.2341 13.5
    endloop
  endfacet
  facet normal -0 0 -1
    outer loop
      vertex 206.485 10.7282 13.5
      vertex 200 6.5 13.5
      vertex 206.383 10.9747 13.5
    endloop
  endfacet
  facet normal -0 0 -1
    outer loop
      vertex 206.625 10.5008 13.5
      vertex 200 6.5 13.5
      vertex 206.485 10.7282 13.5
    endloop
  endfacet
  facet normal -0 0 -1
    outer loop
      vertex 206.798 10.2979 13.5
      vertex 200 6.5 13.5
      vertex 206.625 10.5008 13.5
    endloop
  endfacet
  facet normal -0 0 -1
    outer loop
      vertex 207.001 10.1247 13.5
      vertex 200 6.5 13.5
      vertex 206.798 10.2979 13.5
    endloop
  endfacet
  facet normal -0 0 -1
    outer loop
      vertex 207.228 9.98529 13.5
      vertex 200 6.5 13.5
      vertex 207.001 10.1247 13.5
    endloop
  endfacet
  facet normal -0 0 -1
    outer loop
      vertex 207.475 9.8832 13.5
      vertex 200 6.5 13.5
      vertex 207.228 9.98529 13.5
    endloop
  endfacet
  facet normal -0 0 -1
    outer loop
      vertex 207.734 9.82093 13.5
      vertex 200 6.5 13.5
      vertex 207.475 9.8832 13.5
    endloop
  endfacet
  facet normal 0 0 -1
    outer loop
      vertex 209.7 116.5 13.5
      vertex 216 121.5 13.5
      vertex 209.7 11.5 13.5
    endloop
  endfacet
  facet normal 0 0 -1
    outer loop
      vertex 209.679 116.766 13.5
      vertex 216 121.5 13.5
      vertex 209.7 116.5 13.5
    endloop
  endfacet
  facet normal 0 0 -1
    outer loop
      vertex 209.617 117.025 13.5
      vertex 216 121.5 13.5
      vertex 209.679 116.766 13.5
    endloop
  endfacet
  facet normal 0 0 -1
    outer loop
      vertex 209.515 117.272 13.5
      vertex 216 121.5 13.5
      vertex 209.617 117.025 13.5
    endloop
  endfacet
  facet normal 0 0 -1
    outer loop
      vertex 209.375 117.499 13.5
      vertex 216 121.5 13.5
      vertex 209.515 117.272 13.5
    endloop
  endfacet
  facet normal 0 0 -1
    outer loop
      vertex 209.202 117.702 13.5
      vertex 216 121.5 13.5
      vertex 209.375 117.499 13.5
    endloop
  endfacet
  facet normal 0 0 -1
    outer loop
      vertex 208.999 117.875 13.5
      vertex 216 121.5 13.5
      vertex 209.202 117.702 13.5
    endloop
  endfacet
  facet normal 0 0 -1
    outer loop
      vertex 208.772 118.015 13.5
      vertex 216 121.5 13.5
      vertex 208.999 117.875 13.5
    endloop
  endfacet
  facet normal 0 0 -1
    outer loop
      vertex 208.525 118.117 13.5
      vertex 216 121.5 13.5
      vertex 208.772 118.015 13.5
    endloop
  endfacet
  facet normal 0 0 -1
    outer loop
      vertex 208.266 118.179 13.5
      vertex 216 121.5 13.5
      vertex 208.525 118.117 13.5
    endloop
  endfacet
  facet normal 0 0 -1
    outer loop
      vertex 208 118.2 13.5
      vertex 216 121.5 13.5
      vertex 208.266 118.179 13.5
    endloop
  endfacet
  facet normal 0 0 -1
    outer loop
      vertex 200 121.5 13.5
      vertex 208 118.2 13.5
      vertex 207.734 118.179 13.5
    endloop
  endfacet
  facet normal 0 0 -1
    outer loop
      vertex 200 121.5 13.5
      vertex 207.734 118.179 13.5
      vertex 207.475 118.117 13.5
    endloop
  endfacet
  facet normal 0 0 -1
    outer loop
      vertex 208 118.2 13.5
      vertex 200 121.5 13.5
      vertex 216 121.5 13.5
    endloop
  endfacet
  facet normal 0 0 -1
    outer loop
      vertex 207.228 118.015 13.5
      vertex 200 121.5 13.5
      vertex 207.475 118.117 13.5
    endloop
  endfacet
  facet normal 0 0 -1
    outer loop
      vertex 207.001 117.875 13.5
      vertex 200 121.5 13.5
      vertex 207.228 118.015 13.5
    endloop
  endfacet
  facet normal 0 0 -1
    outer loop
      vertex 206.798 117.702 13.5
      vertex 200 121.5 13.5
      vertex 207.001 117.875 13.5
    endloop
  endfacet
  facet normal 0 0 -1
    outer loop
      vertex 206.625 117.499 13.5
      vertex 200 121.5 13.5
      vertex 206.798 117.702 13.5
    endloop
  endfacet
  facet normal 0 0 -1
    outer loop
      vertex 206.485 117.272 13.5
      vertex 200 121.5 13.5
      vertex 206.625 117.499 13.5
    endloop
  endfacet
  facet normal 0 0 -1
    outer loop
      vertex 206.383 117.025 13.5
      vertex 200 121.5 13.5
      vertex 206.485 117.272 13.5
    endloop
  endfacet
  facet normal 0 0 -1
    outer loop
      vertex 206.321 116.766 13.5
      vertex 200 121.5 13.5
      vertex 206.383 117.025 13.5
    endloop
  endfacet
  facet normal 0 0 -1
    outer loop
      vertex 206.3 116.5 13.5
      vertex 200 121.5 13.5
      vertex 206.321 116.766 13.5
    endloop
  endfacet
  facet normal 0 0 -1
    outer loop
      vertex 200 121.5 13.5
      vertex 206.3 116.5 13.5
      vertex 200 6.5 13.5
    endloop
  endfacet
  facet normal 0 1 -0
    outer loop
      vertex 216 121.5 13.5
      vertex 200 121.5 15.4
      vertex 216 121.5 15.4
    endloop
  endfacet
  facet normal 0 1 0
    outer loop
      vertex 200 121.5 15.4
      vertex 216 121.5 13.5
      vertex 200 121.5 13.5
    endloop
  endfacet
  facet normal 0 -1 0
    outer loop
      vertex 200 6.5 13.5
      vertex 216 6.5 15.4
      vertex 200 6.5 15.4
    endloop
  endfacet
  facet normal 0 -1 -0
    outer loop
      vertex 216 6.5 15.4
      vertex 200 6.5 13.5
      vertex 216 6.5 13.5
    endloop
  endfacet
  facet normal 0 -0.707103 -0.70711
    outer loop
      vertex 200 5.58283 15.4
      vertex 216 2.5 18.4828
      vertex 200 2.5 18.4828
    endloop
  endfacet
  facet normal 0 -0.707103 -0.70711
    outer loop
      vertex 216 2.5 18.4828
      vertex 200 5.58283 15.4
      vertex 216 5.58283 15.4
    endloop
  endfacet
  facet normal 0 0.707084 -0.70713
    outer loop
      vertex 216 122.417 15.4
      vertex 200 125.5 18.4828
      vertex 216 125.5 18.4828
    endloop
  endfacet
  facet normal 0 0.707084 -0.70713
    outer loop
      vertex 200 125.5 18.4828
      vertex 216 122.417 15.4
      vertex 200 122.417 15.4
    endloop
  endfacet
  facet normal -1 0 0
    outer loop
      vertex 209.7 11.5 13.5
      vertex 209.7 116.5 20.4
      vertex 209.7 116.5 13.5
    endloop
  endfacet
  facet normal -1 -0 0
    outer loop
      vertex 209.7 116.5 20.4
      vertex 209.7 11.5 13.5
      vertex 209.7 11.5 20.4
    endloop
  endfacet
  facet normal 0.972523 -0.232805 0
    outer loop
      vertex 206.321 116.766 20.4
      vertex 206.383 117.025 13.5
      vertex 206.383 117.025 20.4
    endloop
  endfacet
  facet normal 0.972523 -0.232805 0
    outer loop
      vertex 206.383 117.025 13.5
      vertex 206.321 116.766 20.4
      vertex 206.321 116.766 13.5
    endloop
  endfacet
  facet normal 1 -0 0
    outer loop
      vertex 206.3 11.5 20.4
      vertex 206.3 116.5 13.5
      vertex 206.3 116.5 20.4
    endloop
  endfacet
  facet normal 1 0 0
    outer loop
      vertex 206.3 116.5 13.5
      vertex 206.3 11.5 20.4
      vertex 206.3 11.5 13.5
    endloop
  endfacet
  facet normal 0.996896 0.0787319 0
    outer loop
      vertex 206.321 11.2341 20.4
      vertex 206.3 11.5 13.5
      vertex 206.3 11.5 20.4
    endloop
  endfacet
  facet normal 0.996896 0.0787319 0
    outer loop
      vertex 206.3 11.5 13.5
      vertex 206.321 11.2341 20.4
      vertex 206.321 11.2341 13.5
    endloop
  endfacet
  facet normal 0.996898 -0.0787025 0
    outer loop
      vertex 206.3 116.5 20.4
      vertex 206.321 116.766 13.5
      vertex 206.321 116.766 20.4
    endloop
  endfacet
  facet normal 0.996898 -0.0787025 0
    outer loop
      vertex 206.321 116.766 13.5
      vertex 206.3 116.5 20.4
      vertex 206.3 116.5 13.5
    endloop
  endfacet
  facet normal 0.381978 0.924171 -0
    outer loop
      vertex 207.475 9.8832 13.5
      vertex 207.228 9.98529 20.4
      vertex 207.475 9.8832 20.4
    endloop
  endfacet
  facet normal 0.381978 0.924171 0
    outer loop
      vertex 207.228 9.98529 20.4
      vertex 207.475 9.8832 13.5
      vertex 207.228 9.98529 13.5
    endloop
  endfacet
  facet normal -0.924017 0.382352 0
    outer loop
      vertex 209.515 10.7282 13.5
      vertex 209.617 10.9747 20.4
      vertex 209.617 10.9747 13.5
    endloop
  endfacet
  facet normal -0.924017 0.382352 0
    outer loop
      vertex 209.617 10.9747 20.4
      vertex 209.515 10.7282 13.5
      vertex 209.515 10.7282 20.4
    endloop
  endfacet
  facet normal 0.972605 0.232465 0
    outer loop
      vertex 206.383 10.9747 20.4
      vertex 206.321 11.2341 13.5
      vertex 206.321 11.2341 20.4
    endloop
  endfacet
  facet normal 0.972605 0.232465 0
    outer loop
      vertex 206.321 11.2341 13.5
      vertex 206.383 10.9747 20.4
      vertex 206.383 10.9747 13.5
    endloop
  endfacet
  facet normal 0.648627 -0.761106 0
    outer loop
      vertex 206.798 117.702 13.5
      vertex 207.001 117.875 20.4
      vertex 206.798 117.702 20.4
    endloop
  endfacet
  facet normal 0.648627 -0.761106 0
    outer loop
      vertex 207.001 117.875 20.4
      vertex 206.798 117.702 13.5
      vertex 207.001 117.875 13.5
    endloop
  endfacet
  facet normal 0.0784418 0.996919 -0
    outer loop
      vertex 208 9.8 13.5
      vertex 207.734 9.82093 20.4
      vertex 208 9.8 20.4
    endloop
  endfacet
  facet normal 0.0784418 0.996919 0
    outer loop
      vertex 207.734 9.82093 20.4
      vertex 208 9.8 13.5
      vertex 207.734 9.82093 13.5
    endloop
  endfacet
  facet normal -0.92429 -0.381691 0
    outer loop
      vertex 209.617 117.025 13.5
      vertex 209.515 117.272 20.4
      vertex 209.515 117.272 13.5
    endloop
  endfacet
  facet normal -0.92429 -0.381691 0
    outer loop
      vertex 209.515 117.272 20.4
      vertex 209.617 117.025 13.5
      vertex 209.617 117.025 20.4
    endloop
  endfacet
  facet normal -0.996898 -0.0787025 0
    outer loop
      vertex 209.7 116.5 13.5
      vertex 209.679 116.766 20.4
      vertex 209.679 116.766 13.5
    endloop
  endfacet
  facet normal -0.996898 -0.0787025 0
    outer loop
      vertex 209.679 116.766 20.4
      vertex 209.7 116.5 13.5
      vertex 209.7 116.5 20.4
    endloop
  endfacet
  facet normal 0.851555 0.524265 0
    outer loop
      vertex 206.625 10.5008 20.4
      vertex 206.485 10.7282 13.5
      vertex 206.485 10.7282 20.4
    endloop
  endfacet
  facet normal 0.851555 0.524265 0
    outer loop
      vertex 206.485 10.7282 13.5
      vertex 206.625 10.5008 20.4
      vertex 206.625 10.5008 13.5
    endloop
  endfacet
  facet normal -0.761106 -0.648627 0
    outer loop
      vertex 209.375 117.499 13.5
      vertex 209.202 117.702 20.4
      vertex 209.202 117.702 13.5
    endloop
  endfacet
  facet normal -0.761106 -0.648627 0
    outer loop
      vertex 209.202 117.702 20.4
      vertex 209.375 117.499 13.5
      vertex 209.375 117.499 20.4
    endloop
  endfacet
  facet normal -0.0787025 -0.996898 0
    outer loop
      vertex 208 118.2 13.5
      vertex 208.266 118.179 20.4
      vertex 208 118.2 20.4
    endloop
  endfacet
  facet normal -0.0787025 -0.996898 -0
    outer loop
      vertex 208.266 118.179 20.4
      vertex 208 118.2 13.5
      vertex 208.266 118.179 13.5
    endloop
  endfacet
  facet normal -0.523329 0.852131 0
    outer loop
      vertex 208.999 10.1247 13.5
      vertex 208.772 9.98529 20.4
      vertex 208.999 10.1247 20.4
    endloop
  endfacet
  facet normal -0.523329 0.852131 0
    outer loop
      vertex 208.772 9.98529 20.4
      vertex 208.999 10.1247 13.5
      vertex 208.772 9.98529 13.5
    endloop
  endfacet
  facet normal -0.0784418 0.996919 0
    outer loop
      vertex 208.266 9.82093 13.5
      vertex 208 9.8 20.4
      vertex 208.266 9.82093 20.4
    endloop
  endfacet
  facet normal -0.0784418 0.996919 0
    outer loop
      vertex 208 9.8 20.4
      vertex 208.266 9.82093 13.5
      vertex 208 9.8 13.5
    endloop
  endfacet
  facet normal 0.381691 -0.92429 0
    outer loop
      vertex 207.228 118.015 13.5
      vertex 207.475 118.117 20.4
      vertex 207.228 118.015 20.4
    endloop
  endfacet
  facet normal 0.381691 -0.92429 0
    outer loop
      vertex 207.475 118.117 20.4
      vertex 207.228 118.015 13.5
      vertex 207.475 118.117 13.5
    endloop
  endfacet
  facet normal 0.924017 0.382352 0
    outer loop
      vertex 206.485 10.7282 20.4
      vertex 206.383 10.9747 13.5
      vertex 206.383 10.9747 20.4
    endloop
  endfacet
  facet normal 0.924017 0.382352 0
    outer loop
      vertex 206.383 10.9747 13.5
      vertex 206.485 10.7282 20.4
      vertex 206.485 10.7282 13.5
    endloop
  endfacet
  facet normal 0.92429 -0.381691 0
    outer loop
      vertex 206.383 117.025 20.4
      vertex 206.485 117.272 13.5
      vertex 206.485 117.272 20.4
    endloop
  endfacet
  facet normal 0.92429 -0.381691 0
    outer loop
      vertex 206.485 117.272 13.5
      vertex 206.383 117.025 20.4
      vertex 206.383 117.025 13.5
    endloop
  endfacet
  facet normal -0.524934 -0.851143 0
    outer loop
      vertex 208.772 118.015 13.5
      vertex 208.999 117.875 20.4
      vertex 208.772 118.015 20.4
    endloop
  endfacet
  facet normal -0.524934 -0.851143 -0
    outer loop
      vertex 208.999 117.875 20.4
      vertex 208.772 118.015 13.5
      vertex 208.999 117.875 13.5
    endloop
  endfacet
  facet normal -0.649061 0.760736 0
    outer loop
      vertex 209.202 10.2979 13.5
      vertex 208.999 10.1247 20.4
      vertex 209.202 10.2979 20.4
    endloop
  endfacet
  facet normal -0.649061 0.760736 0
    outer loop
      vertex 208.999 10.1247 20.4
      vertex 209.202 10.2979 13.5
      vertex 208.999 10.1247 13.5
    endloop
  endfacet
  facet normal 0.760948 0.648813 0
    outer loop
      vertex 206.798 10.2979 20.4
      vertex 206.625 10.5008 13.5
      vertex 206.625 10.5008 20.4
    endloop
  endfacet
  facet normal 0.760948 0.648813 0
    outer loop
      vertex 206.625 10.5008 13.5
      vertex 206.798 10.2979 20.4
      vertex 206.798 10.2979 13.5
    endloop
  endfacet
  facet normal 0.761106 -0.648627 0
    outer loop
      vertex 206.625 117.499 20.4
      vertex 206.798 117.702 13.5
      vertex 206.798 117.702 20.4
    endloop
  endfacet
  facet normal 0.761106 -0.648627 0
    outer loop
      vertex 206.798 117.702 13.5
      vertex 206.625 117.499 20.4
      vertex 206.625 117.499 13.5
    endloop
  endfacet
  facet normal 0.851143 -0.524934 0
    outer loop
      vertex 206.485 117.272 20.4
      vertex 206.625 117.499 13.5
      vertex 206.625 117.499 20.4
    endloop
  endfacet
  facet normal 0.851143 -0.524934 0
    outer loop
      vertex 206.625 117.499 13.5
      vertex 206.485 117.272 20.4
      vertex 206.485 117.272 13.5
    endloop
  endfacet
  facet normal 0.649061 0.760736 -0
    outer loop
      vertex 207.001 10.1247 13.5
      vertex 206.798 10.2979 20.4
      vertex 207.001 10.1247 20.4
    endloop
  endfacet
  facet normal 0.649061 0.760736 0
    outer loop
      vertex 206.798 10.2979 20.4
      vertex 207.001 10.1247 13.5
      vertex 206.798 10.2979 13.5
    endloop
  endfacet
  facet normal 0.523329 0.852131 -0
    outer loop
      vertex 207.228 9.98529 13.5
      vertex 207.001 10.1247 20.4
      vertex 207.228 9.98529 20.4
    endloop
  endfacet
  facet normal 0.523329 0.852131 0
    outer loop
      vertex 207.001 10.1247 20.4
      vertex 207.228 9.98529 13.5
      vertex 207.001 10.1247 13.5
    endloop
  endfacet
  facet normal -0.851143 -0.524934 0
    outer loop
      vertex 209.515 117.272 13.5
      vertex 209.375 117.499 20.4
      vertex 209.375 117.499 13.5
    endloop
  endfacet
  facet normal -0.851143 -0.524934 0
    outer loop
      vertex 209.375 117.499 20.4
      vertex 209.515 117.272 13.5
      vertex 209.515 117.272 20.4
    endloop
  endfacet
  facet normal -0.972605 0.232465 0
    outer loop
      vertex 209.617 10.9747 13.5
      vertex 209.679 11.2341 20.4
      vertex 209.679 11.2341 13.5
    endloop
  endfacet
  facet normal -0.972605 0.232465 0
    outer loop
      vertex 209.679 11.2341 20.4
      vertex 209.617 10.9747 13.5
      vertex 209.617 10.9747 20.4
    endloop
  endfacet
  facet normal -0.381978 0.924171 0
    outer loop
      vertex 208.772 9.98529 13.5
      vertex 208.525 9.8832 20.4
      vertex 208.772 9.98529 20.4
    endloop
  endfacet
  facet normal -0.381978 0.924171 0
    outer loop
      vertex 208.525 9.8832 20.4
      vertex 208.772 9.98529 13.5
      vertex 208.525 9.8832 13.5
    endloop
  endfacet
  facet normal 0.232805 -0.972523 0
    outer loop
      vertex 207.475 118.117 13.5
      vertex 207.734 118.179 20.4
      vertex 207.475 118.117 20.4
    endloop
  endfacet
  facet normal 0.232805 -0.972523 0
    outer loop
      vertex 207.734 118.179 20.4
      vertex 207.475 118.117 13.5
      vertex 207.734 118.179 13.5
    endloop
  endfacet
  facet normal -0.972523 -0.232805 0
    outer loop
      vertex 209.679 116.766 13.5
      vertex 209.617 117.025 20.4
      vertex 209.617 117.025 13.5
    endloop
  endfacet
  facet normal -0.972523 -0.232805 0
    outer loop
      vertex 209.617 117.025 20.4
      vertex 209.679 116.766 13.5
      vertex 209.679 116.766 20.4
    endloop
  endfacet
  facet normal 0.0787025 -0.996898 0
    outer loop
      vertex 207.734 118.179 13.5
      vertex 208 118.2 20.4
      vertex 207.734 118.179 20.4
    endloop
  endfacet
  facet normal 0.0787025 -0.996898 0
    outer loop
      vertex 208 118.2 20.4
      vertex 207.734 118.179 13.5
      vertex 208 118.2 13.5
    endloop
  endfacet
  facet normal -0.648627 -0.761106 0
    outer loop
      vertex 208.999 117.875 13.5
      vertex 209.202 117.702 20.4
      vertex 208.999 117.875 20.4
    endloop
  endfacet
  facet normal -0.648627 -0.761106 -0
    outer loop
      vertex 209.202 117.702 20.4
      vertex 208.999 117.875 13.5
      vertex 209.202 117.702 13.5
    endloop
  endfacet
  facet normal 0.524934 -0.851143 0
    outer loop
      vertex 207.001 117.875 13.5
      vertex 207.228 118.015 20.4
      vertex 207.001 117.875 20.4
    endloop
  endfacet
  facet normal 0.524934 -0.851143 0
    outer loop
      vertex 207.228 118.015 20.4
      vertex 207.001 117.875 13.5
      vertex 207.228 118.015 13.5
    endloop
  endfacet
  facet normal -0.381691 -0.92429 0
    outer loop
      vertex 208.525 118.117 13.5
      vertex 208.772 118.015 20.4
      vertex 208.525 118.117 20.4
    endloop
  endfacet
  facet normal -0.381691 -0.92429 -0
    outer loop
      vertex 208.772 118.015 20.4
      vertex 208.525 118.117 13.5
      vertex 208.772 118.015 13.5
    endloop
  endfacet
  facet normal -0.233763 0.972294 0
    outer loop
      vertex 208.525 9.8832 13.5
      vertex 208.266 9.82093 20.4
      vertex 208.525 9.8832 20.4
    endloop
  endfacet
  facet normal -0.233763 0.972294 0
    outer loop
      vertex 208.266 9.82093 20.4
      vertex 208.525 9.8832 13.5
      vertex 208.266 9.82093 13.5
    endloop
  endfacet
  facet normal 0.233763 0.972294 -0
    outer loop
      vertex 207.734 9.82093 13.5
      vertex 207.475 9.8832 20.4
      vertex 207.734 9.82093 20.4
    endloop
  endfacet
  facet normal 0.233763 0.972294 0
    outer loop
      vertex 207.475 9.8832 20.4
      vertex 207.734 9.82093 13.5
      vertex 207.475 9.8832 13.5
    endloop
  endfacet
  facet normal -0.996896 0.0787319 0
    outer loop
      vertex 209.679 11.2341 13.5
      vertex 209.7 11.5 20.4
      vertex 209.7 11.5 13.5
    endloop
  endfacet
  facet normal -0.996896 0.0787319 0
    outer loop
      vertex 209.7 11.5 20.4
      vertex 209.679 11.2341 13.5
      vertex 209.679 11.2341 20.4
    endloop
  endfacet
  facet normal -0.760948 0.648813 0
    outer loop
      vertex 209.202 10.2979 13.5
      vertex 209.375 10.5008 20.4
      vertex 209.375 10.5008 13.5
    endloop
  endfacet
  facet normal -0.760948 0.648813 0
    outer loop
      vertex 209.375 10.5008 20.4
      vertex 209.202 10.2979 13.5
      vertex 209.202 10.2979 20.4
    endloop
  endfacet
  facet normal -0.232805 -0.972523 0
    outer loop
      vertex 208.266 118.179 13.5
      vertex 208.525 118.117 20.4
      vertex 208.266 118.179 20.4
    endloop
  endfacet
  facet normal -0.232805 -0.972523 -0
    outer loop
      vertex 208.525 118.117 20.4
      vertex 208.266 118.179 13.5
      vertex 208.525 118.117 13.5
    endloop
  endfacet
  facet normal -0.851555 0.524265 0
    outer loop
      vertex 209.375 10.5008 13.5
      vertex 209.515 10.7282 20.4
      vertex 209.515 10.7282 13.5
    endloop
  endfacet
  facet normal -0.851555 0.524265 0
    outer loop
      vertex 209.515 10.7282 20.4
      vertex 209.375 10.5008 13.5
      vertex 209.375 10.5008 20.4
    endloop
  endfacet
endsolid OpenSCAD_Model
